<svg xmlns="http://www.w3.org/2000/svg" viewBox="0 0 64 64">
  <rect width="64" height="64" rx="14" fill="#0b0e19"/>
  <path d="M8 51h48" stroke="#2c3554" stroke-width="3" stroke-linecap="round"/>
  <path d="M12 24a5 5 0 0 1 5-5h17a5 5 0 0 1 5 5v5h3.5a4 4 0 0 1 3 1.4l6.6 7.6a4 4 0 0 1 1 2.6v2.4a3 3 0 0 1-3 3H15a3 3 0 0 1-3-3z" fill="#d9a95c"/>
  <rect x="17" y="24" width="8" height="8" rx="2" fill="#0b0e19"/>
  <rect x="29" y="24" width="8" height="8" rx="2" fill="#0b0e19"/>
  <path d="M41 31h4l5.5 6.5H41z" fill="#0b0e19"/>
  <circle cx="21" cy="48" r="4.5" fill="#0b0e19" stroke="#d9a95c" stroke-width="2.5"/>
  <circle cx="39" cy="48" r="4.5" fill="#0b0e19" stroke="#d9a95c" stroke-width="2.5"/>
</svg>
